PathFileType	3	(X/Y/Z)	E:\ViconData\BIOM9541 2025\Week 7\Wed1100\Hanif high squat 7-5 Squat 01.trc
DataRate	CameraRate	NumFrames	NumMarkers	Units	OrigDataRate	OrigDataStartFrame	OrigNumFrames
200.0	200.0	10	19	mm	200.0	440	1756	
Frame#	Time	C7			CLAV			RBAK			LASI			RASI			LPSI			RPSI			LTHI			LKNE			LTIB			LANK			LHEE			LTOE			RTHI			RKNE			RTIB			RANK			RHEE			RTOE			
		X1	Y1	Z1	X2	Y2	Z2	X3	Y3	Z3	X4	Y4	Z4	X5	Y5	Z5	X6	Y6	Z6	X7	Y7	Z7	X8	Y8	Z8	X9	Y9	Z9	X10	Y10	Z10	X11	Y11	Z11	X12	Y12	Z12	X13	Y13	Z13	X14	Y14	Z14	X15	Y15	Z15	X16	Y16	Z16	X17	Y17	Z17	X18	Y18	Z18	X19	Y19	Z19	
440	2.195	306.2951	1061.489	-1219.5104	165.46431	973.341	-1207.8978	327.0152	982.91211	-1372.72	259.13425	622.91901	-1092.0712	246.9362	635.5039	-1354.5203	424.2671	687.3654	-1183.3354	422.1182	683.3096	-1257.2194	163.31633	461.72736	-935.25848	84.822067	353.44632	-897.36261	204.68823	186.11658	-922.93219	300.23367	67.365875	-978.4668	321.2923	54.205383	-1036.0492	159.53404	38.181232	-948.29413	274.33054	557.54199	-1440.5845	89.85463	337.54556	-1530.9122	130.25865	263.68607	-1525.868	289.50336	70.071083	-1435.3087	316.96735	52.704388	-1365.6135	161.15051	39.958252	-1462.7869	
441	2.2	306.52139	1063.6377	-1219.5936	165.64053	975.47229	-1208.001	327.09839	985.06628	-1372.79	259.16461	624.99847	-1092.1019	246.7955	637.5182	-1354.5892	424.1867	689.4637	-1183.2169	421.9984	685.4438	-1257.2977	163.92094	462.72943	-935.23572	85.64534	354.06375	-897.42804	205.11018	186.35574	-922.95984	300.29092	67.407135	-978.44501	321.99353	54.732567	-1036.3875	159.54497	38.215992	-948.26892	274.2113	559.0498	-1440.6177	90.408829	338.18417	-1530.5828	130.72343	264.20035	-1525.5874	289.54221	70.100632	-1435.3063	317.03922	52.679531	-1365.6467	161.12628	39.976524	-1462.7737	
442	2.205	306.72903	1065.915	-1219.6561	165.77403	977.867	-1208.0862	327.22632	987.25006	-1372.8458	259.17188	627.18182	-1092.0634	246.7582	639.4652	-1354.5548	424.1137	691.6149	-1183.42	421.972	687.6795	-1257.4249	164.52507	463.60547	-935.17279	86.50312	354.74814	-897.5061	205.56836	186.66808	-922.94733	300.38834	67.334663	-978.45911	321.3266	54.074524	-1035.9705	159.59077	38.207523	-948.32428	274.16113	560.40674	-1440.4669	91.029808	338.75082	-1530.2267	131.25478	264.68942	-1525.318	289.63519	70.089912	-1435.3062	317.07346	52.665485	-1365.6765	161.13022	39.900005	-1462.7721	
443	2.21	306.86627	1068.1212	-1219.6769	165.84465	980.14453	-1207.9954	327.72772	989.60736	-1373.149	259.18692	629.43311	-1091.9496	246.6128	641.5167	-1354.5475	424.0373	693.829	-1183.5524	421.8878	690.1096	-1257.457	165.14645	464.75781	-935.06305	87.424255	355.41852	-897.61346	206.0032	187.00209	-922.9082	299.77176	66.525703	-978.38708	321.40164	54.060741	-1036.0024	159.60947	38.168736	-948.28253	274.03711	561.93506	-1440.4899	91.62812	339.34814	-1529.8163	131.75014	265.21841	-1525.0305	289.67361	70.07605	-1435.304	317.125	52.578907	-1365.7695	161.13892	39.881439	-1462.7935	
444	2.215	306.95914	1070.4403	-1219.7341	165.99084	982.53278	-1208.076	327.4798	991.87811	-1373.1167	259.21185	631.69916	-1091.9344	246.5353	643.6584	-1354.5663	423.951	696.235	-1183.5679	421.7098	692.1755	-1257.5454	165.83739	465.77856	-935.05139	88.305916	356.10272	-897.64197	206.45364	187.27699	-922.89465	299.77969	66.485085	-978.30103	321.43445	54.067089	-1035.9731	159.63696	38.17012	-948.22168	273.92386	563.57483	-1440.5034	92.273064	339.97314	-1529.4271	132.29781	265.81363	-1524.6945	289.69202	70.122879	-1435.3328	317.12396	52.581551	-1365.7352	161.10788	39.865162	-1462.7943	
445	2.22	307.19424	1072.8859	-1219.8649	166.10101	984.98535	-1208.0966	327.52728	994.2951	-1373.1555	259.21573	633.9433	-1091.8994	246.3735	645.9059	-1354.4221	423.8476	698.7078	-1183.4977	424.5968	697.7189	-1261.0186	166.51065	466.88977	-934.99976	89.308281	356.82123	-897.78528	206.92729	187.54147	-922.92523	299.88144	66.535301	-978.23114	321.44241	54.131668	-1035.9509	159.61685	38.220348	-948.17157	273.82236	565.24719	-1440.3772	92.853279	340.76498	-1528.9767	132.83554	266.47058	-1524.353	289.74948	70.139038	-1435.3149	317.13705	52.629459	-1365.6967	161.08995	39.919804	-1462.8048	
446	2.225	307.32059	1075.36	-1219.8761	166.20868	987.54187	-1208.1847	327.59503	996.79694	-1373.2639	259.85907	635.65057	-1093.5229	246.244	648.2838	-1354.4906	423.7028	701.2425	-1183.3167	421.3539	696.9742	-1257.6182	167.17702	467.95618	-934.94434	90.268105	357.58096	-897.8609	207.46753	187.80991	-923.0459	300.02863	67.006409	-978.06934	321.51151	54.226295	-1035.9255	159.58679	38.268845	-948.00714	273.77051	566.96368	-1440.3162	93.598343	341.56708	-1528.5547	133.40643	267.17545	-1523.9827	289.77335	70.268646	-1435.3127	317.12024	52.668907	-1365.582	161.06491	39.97551	-1462.8195	
447	2.23	307.4111	1077.8407	-1219.9071	166.32591	990.18854	-1208.2269	327.67032	999.30334	-1373.3488	259.88828	638.12274	-1093.4915	246.1702	650.5666	-1354.3221	423.6208	703.8244	-1183.4924	423.8604	702.4225	-1260.5671	167.89104	469.14166	-934.94135	91.238472	358.2952	-898.00122	207.90765	188.2265	-922.95251	300.12842	66.936646	-978.11646	321.54318	54.1838	-1035.8798	159.62158	38.323662	-948.03326	273.66006	568.75708	-1440.2318	94.349846	342.32541	-1528.115	134.03313	267.79846	-1523.6147	289.84662	70.300278	-1435.3147	317.18533	52.631897	-1365.61	161.06653	39.984283	-1462.8352	
448	2.235	307.63199	1080.5015	-1220.0859	166.44292	992.86279	-1208.28	327.74417	1001.9182	-1373.3363	259.87201	640.67157	-1093.4564	245.9814	652.9987	-1354.3212	423.5383	706.3633	-1183.7124	423.9878	705.2513	-1260.9911	168.55043	470.36636	-934.90118	92.277519	359.1488	-898.16656	208.37215	188.60355	-922.94183	300.15259	66.496735	-978.24652	321.52631	54.011032	-1035.7585	159.65251	38.29903	-948.03406	273.57968	570.5816	-1440.2018	95.102226	343.07251	-1527.6304	134.69951	268.43616	-1523.2823	289.92627	70.265289	-1435.299	317.29913	52.502335	-1365.8109	161.0614	39.917778	-1462.806	
449	2.24	307.76907	1083.1272	-1220.0957	166.55577	995.61658	-1208.313	327.79205	1004.5151	-1373.4447	259.82388	643.36334	-1093.4275	245.8139	655.4411	-1354.2142	423.4494	708.9898	-1184.0405	421.3245	705.0635	-1258.1074	169.29802	471.58286	-934.90472	93.313286	359.93475	-898.34723	208.93584	188.93697	-923.07092	300.19272	66.443497	-978.21783	321.53708	53.870068	-1035.6946	159.65628	38.248493	-948.02173	273.51608	572.44696	-1440.1154	95.922562	343.82339	-1527.1764	135.3549	269.03976	-1522.9115	289.98727	70.201073	-1435.2843	317.39746	52.379036	-1365.97	161.03806	39.914276	-1462.8518	
